<svg version="1.1" id="Layer_1" xmlns="http://www.w3.org/2000/svg" xmlns:xlink="http://www.w3.org/1999/xlink" x="0px" y="0px"
	 width="100%" viewBox="0 0 200 200" enable-background="new 0 0 200 200" xml:space="preserve">
<path fill="#000000" opacity="1.000000" stroke="none" 
	d="
M100.000000,201.000000 
	C66.687195,201.000000 33.874397,201.000000 1.030797,201.000000 
	C1.030797,134.395569 1.030797,67.791107 1.030797,1.093328 
	C67.562645,1.093328 134.125458,1.093328 200.844147,1.093328 
	C200.844147,67.666382 200.844147,134.333145 200.844147,201.000000 
	C167.458054,201.000000 133.979034,201.000000 100.000000,201.000000 
M179.801636,120.696503 
	C186.725769,110.710899 188.253525,99.369492 184.482788,88.412079 
	C177.626373,68.487923 162.195526,59.227894 141.470093,62.264431 
	C117.721176,65.743942 104.940788,89.047379 111.671371,111.045021 
	C116.683212,127.425247 129.002411,136.395142 145.471985,137.806915 
	C155.749680,138.687943 165.494446,135.855133 173.739639,127.790588 
	C175.551743,125.524384 177.363831,123.258179 179.801636,120.696503 
M54.660660,62.993134 
	C48.717381,66.556404 41.590775,69.030746 37.090084,73.921539 
	C29.025562,82.685089 25.893114,93.505188 27.823231,105.987679 
	C30.887486,125.804916 49.266396,141.468994 71.714661,137.760666 
	C94.180855,134.049377 108.223190,113.181946 102.975967,90.490479 
	C97.995651,68.953217 75.182259,56.704746 54.660660,62.993134 
z"/>
<path fill="#25AAE1" opacity="1.000000" stroke="none" 
	d="
M55.077721,62.945877 
	C75.182259,56.704746 97.995651,68.953217 102.975967,90.490479 
	C108.223190,113.181946 94.180855,134.049377 71.714661,137.760666 
	C49.266396,141.468994 30.887486,125.804916 27.823231,105.987679 
	C25.893114,93.505188 29.025562,82.685089 37.090084,73.921539 
	C41.590775,69.030746 48.717381,66.556404 55.077721,62.945877 
z"/>
<path fill="#2BACE2" opacity="1.000000" stroke="none" 
	d="
M173.096390,128.059799 
	C165.494446,135.855133 155.749680,138.687943 145.471985,137.806915 
	C129.002411,136.395142 116.683212,127.425247 111.671371,111.045021 
	C104.940788,89.047379 117.721176,65.743942 141.470093,62.264431 
	C162.195526,59.227894 177.626373,68.487923 184.482788,88.412079 
	C188.253525,99.369492 186.725769,110.710899 179.423615,120.485199 
	C178.835815,119.027527 178.626038,117.781158 178.423828,116.579849 
	C169.900894,117.094826 164.935669,121.339523 165.023117,127.976151 
	C167.755219,126.805054 170.578873,123.793419 173.096390,128.059799 
M114.219307,88.455788 
	C114.135933,88.856575 114.052559,89.257355 113.606392,90.343559 
	C113.110077,91.742012 112.677223,93.166946 112.106506,94.534348 
	C109.548187,100.663803 110.550949,104.069901 115.788116,108.041687 
	C116.627266,108.678085 116.786858,110.232452 117.220535,111.377632 
	C118.765961,115.458504 119.853157,119.797241 121.986870,123.540749 
	C123.363525,125.956032 125.359154,125.785088 126.965073,122.514343 
	C129.228973,117.903488 127.737732,111.888687 132.506134,108.204498 
	C132.977264,107.840485 132.085861,105.712952 131.833710,104.438499 
	C133.935303,102.446182 136.601181,99.918930 140.099991,96.602043 
	C145.608292,96.119476 145.004196,103.951324 148.453110,106.505135 
	C150.696854,103.224159 152.550842,100.513115 153.955353,98.459351 
	C157.262253,101.084305 159.640457,103.373055 162.394684,105.040840 
	C164.937012,106.580322 166.118805,105.265099 165.642578,102.446449 
	C165.489090,101.537964 165.278976,100.639046 165.110641,99.813522 
	C171.084915,97.021164 171.084915,97.021164 168.312378,88.661316 
	C169.962830,86.463135 172.490585,84.569176 172.615692,82.527946 
	C172.748688,80.358231 170.604218,78.048920 169.379105,75.653687 
	C170.225449,74.873100 171.132156,74.036842 171.905594,73.323509 
	C166.234650,64.843315 157.219208,65.323982 149.138779,64.837883 
	C141.186829,64.359505 134.500366,68.886322 128.272247,73.198639 
	C126.463158,72.861786 124.118134,72.749397 123.397278,73.776688 
	C120.165817,78.381805 117.396599,83.311279 114.219307,88.455788 
z"/>
<path fill="#F4FBFD" opacity="1.000000" stroke="none" 
	d="
M173.418015,127.925194 
	C170.578873,123.793419 167.755219,126.805054 165.023117,127.976151 
	C164.935669,121.339523 169.900894,117.094826 178.423828,116.579849 
	C178.626038,117.781158 178.835815,119.027527 179.110764,120.632935 
	C177.363831,123.258179 175.551743,125.524384 173.418015,127.925194 
z"/>
<path fill="#FAFDFE" opacity="1.000000" stroke="none" 
	d="
M114.460564,88.123703 
	C117.396599,83.311279 120.165817,78.381805 123.397278,73.776688 
	C124.118134,72.749397 126.463158,72.861786 128.272247,73.198639 
	C134.500366,68.886322 141.186829,64.359505 149.138779,64.837883 
	C157.219208,65.323982 166.234650,64.843315 171.905594,73.323509 
	C171.132156,74.036842 170.225449,74.873100 169.379105,75.653687 
	C170.604218,78.048920 172.748688,80.358231 172.615692,82.527946 
	C172.490585,84.569176 169.962830,86.463135 168.312378,88.661316 
	C171.084915,97.021164 171.084915,97.021164 165.110641,99.813522 
	C165.278976,100.639046 165.489090,101.537964 165.642578,102.446449 
	C166.118805,105.265099 164.937012,106.580322 162.394684,105.040840 
	C159.640457,103.373055 157.262253,101.084305 153.955353,98.459351 
	C152.550842,100.513115 150.696854,103.224159 148.453110,106.505135 
	C145.004196,103.951324 145.608292,96.119476 140.099991,96.602043 
	C136.601181,99.918930 133.935303,102.446182 131.833710,104.438499 
	C132.085861,105.712952 132.977264,107.840485 132.506134,108.204498 
	C127.737732,111.888687 129.228973,117.903488 126.965073,122.514343 
	C125.359154,125.785088 123.363525,125.956032 121.986870,123.540749 
	C119.853157,119.797241 118.765961,115.458504 117.220535,111.377632 
	C116.786858,110.232452 116.627266,108.678085 115.788116,108.041687 
	C110.550949,104.069901 109.548187,100.663803 112.106506,94.534348 
	C112.677223,93.166946 113.110077,91.742012 114.148560,90.145706 
	C117.305977,94.693954 120.713615,95.400978 125.866478,91.583519 
	C121.737946,90.331184 118.099251,89.227440 114.460564,88.123703 
z"/>
<path fill="#3BB3E4" opacity="1.000000" stroke="none" 
	d="
M114.339935,88.289749 
	C118.099251,89.227440 121.737946,90.331184 125.866478,91.583519 
	C120.713615,95.400978 117.305977,94.693954 114.329956,89.803001 
	C114.052559,89.257355 114.135933,88.856575 114.339935,88.289749 
z"/>
</svg>